HIERARCHY
ROOT RootJoint
{
    OFFSET   0.000000   0.000000   0.000000
    CHANNELS 6 Xposition Yposition Zposition Xrotation Yrotation Zrotation
    JOINT pelvis_lowerback
    {
        OFFSET   0.000000   0.093605   0.000000
        CHANNELS 3 Xrotation Yrotation Zrotation
        JOINT lowerback_torso
        {
            OFFSET   0.000000   0.100000   0.000000
            CHANNELS 3 Xrotation Yrotation Zrotation
            JOINT torso_head
            {
                OFFSET   0.000000   0.282350   0.000000
                CHANNELS 3 Xrotation Yrotation Zrotation
                End Site
                {
                    OFFSET   0.000000   0.192650   0.000000
                }
            }
            JOINT rTorso_Clavicle
            {
                OFFSET  -0.001000   0.157500   0.000000
                CHANNELS 3 Xrotation Yrotation Zrotation
                JOINT rShoulder
                {
                    OFFSET  -0.117647   0.000000   0.000000
                    CHANNELS 3 Xrotation Yrotation Zrotation
                    JOINT rElbow
                    {
                        OFFSET  -0.245000   0.000000   0.000000
                        CHANNELS 3 Xrotation Yrotation Zrotation
                        JOINT rWrist
                        {
                            OFFSET  -0.240000   0.000000   0.000000
                            CHANNELS 3 Xrotation Yrotation Zrotation
                            End Site
                            {
                                OFFSET  -0.116353  -0.002500   0.000000
                            }
                        }
                    }
                }
            }
            JOINT lTorso_Clavicle
            {
                OFFSET   0.001000   0.157500   0.000000
                CHANNELS 3 Xrotation Yrotation Zrotation
                JOINT lShoulder
                {
                    OFFSET   0.117647   0.000000   0.000000
                    CHANNELS 3 Xrotation Yrotation Zrotation
                    JOINT lElbow
                    {
                        OFFSET   0.245000   0.000000   0.000000
                        CHANNELS 3 Xrotation Yrotation Zrotation
                        JOINT lWrist
                        {
                            OFFSET   0.240000   0.000000   0.000000
                            CHANNELS 3 Xrotation Yrotation Zrotation
                            End Site
                            {
                                OFFSET   0.116353  -0.002500   0.000000
                            }
                        }
                    }
                }
            }
        }
    }
    JOINT rHip
    {
        OFFSET  -0.100000  -0.051395   0.000000
        CHANNELS 3 Xrotation Yrotation Zrotation
        JOINT rKnee
        {
            OFFSET   0.000000  -0.410000   0.000000
            CHANNELS 3 Xrotation Yrotation Zrotation
            JOINT rAnkle
            {
                OFFSET   0.000000  -0.390000   0.000000
                CHANNELS 3 Xrotation Yrotation Zrotation
                JOINT rToeJoint
                {
                    OFFSET   0.000000  -0.050000   0.130000
                    CHANNELS 3 Xrotation Yrotation Zrotation
                    End Site
                    {
                        OFFSET  -0.010000   0.002000   0.060000
                    }
                }
            }
        }
    }
    JOINT lHip
    {
        OFFSET   0.100000  -0.051395   0.000000
        CHANNELS 3 Xrotation Yrotation Zrotation
        JOINT lKnee
        {
            OFFSET   0.000000  -0.410000   0.000000
            CHANNELS 3 Xrotation Yrotation Zrotation
            JOINT lAnkle
            {
                OFFSET   0.000000  -0.390000   0.000000
                CHANNELS 3 Xrotation Yrotation Zrotation
                JOINT lToeJoint
                {
                    OFFSET   0.000000  -0.050000   0.130000
                    CHANNELS 3 Xrotation Yrotation Zrotation
                    End Site
                    {
                        OFFSET   0.010000   0.002000   0.060000
                    }
                }
            }
        }
    }
}
MOTION
Frames: 17
Frame Time:   0.008333
 -2.267757   0.902987   5.351902  -2.249311   3.622216   1.947688   4.065426  -0.300310  -6.901842   9.427344  -2.631418  -2.166461   2.541092  -0.312493  -0.148495   2.330816   6.308804  18.037538   3.289252  11.316814  39.443456   0.000879  19.447238  -0.001616  12.770120   2.371013  -0.406975   1.377062  -6.976013 -16.501742   3.812666 -14.720515 -32.018117  -0.003691 -23.083723  -0.002078  10.200971  -5.862751   2.439560 -20.141981  -2.486623  -9.710400  44.144396  -0.003987  -0.023693 -11.323961  -9.211492   1.097782  -2.737545  -0.000032  -0.000274   2.794574   2.847001  -3.626400  16.284258  -0.000116  -0.003304 -16.464287   1.794983   3.724003  -0.625658  -0.000206  -0.000133
 -2.267686   0.902448   5.359437  -2.224612   3.832798   1.921417   4.053557  -0.355187  -6.846720   9.378120  -2.711125  -2.111925   2.501931  -0.250750  -0.228792   2.371621   6.204496  18.052936   3.370534  11.078309  39.370751   0.000753  19.325169  -0.001438  12.712177   2.379859  -0.457500   1.340198  -6.992795 -16.482038   3.531285 -14.891970 -31.952159  -0.003914 -23.415777  -0.002365  10.201386  -5.818591   2.454331 -20.610487  -2.255783  -9.616371  41.999292  -0.004756  -0.026016 -11.148336  -9.196576   1.178545  -2.792049   0.000185  -0.000423   3.410037   2.871474  -3.515974  16.024624  -0.000015  -0.003304 -16.714085   1.527929   3.485440  -0.803617  -0.000360  -0.000105
 -2.267632   0.901842   5.366947  -2.182784   4.031341   1.911557   4.041551  -0.404866  -6.800524   9.321080  -2.786542  -2.063180   2.461055  -0.191050  -0.308352   2.417172   6.103380  18.065510   3.451711  10.849955  39.305218   0.000630  19.207677  -0.001270  12.657389   2.374245  -0.492152   1.298443  -7.011667 -16.455852   3.262816 -15.060170 -31.890087  -0.004047 -23.734444  -0.002526  10.203384  -5.823424   2.474411 -21.094229  -2.017335  -9.554919  39.862469  -0.005201  -0.027564 -10.984963  -9.179740   1.254562  -2.811048   0.000219  -0.000409   4.003517   2.891141  -3.422129  15.768868   0.000078  -0.003254 -16.949699   1.271476   3.254491  -1.003033  -0.000492  -0.000068
 -2.267612   0.901170   5.374472  -2.142526   4.226375   1.909388   4.035200  -0.456916  -6.756410   9.269185  -2.861899  -2.015970   2.422958  -0.135015  -0.383258   2.462570   6.006956  18.077254   3.529274  10.634419  39.244851   0.000516  19.096580  -0.001116  12.605010   2.360033  -0.518898   1.254674  -7.033095 -16.427472   3.009518 -15.220719 -31.829669  -0.004076 -24.033859  -0.002561  10.206670  -5.843990   2.502721 -21.587220  -1.783356  -9.513074  37.831725  -0.005261  -0.028234 -10.834090  -9.163631   1.325160  -2.829268   0.000242  -0.000392   4.588060   2.903809  -3.332743  15.533829   0.000156  -0.003142 -17.181580   1.027396   3.034110  -1.226242  -0.000596  -0.000036
 -2.267683   0.900019   5.382033  -2.097087   4.434963   1.836636   4.020172  -0.517191  -6.653120   9.212570  -2.939614  -1.941695   2.389164  -0.082641  -0.450375   2.511078   5.907756  18.060520   3.605956  10.427451  39.180275   0.000442  18.992609  -0.000990  12.554913   2.346145  -0.536689   1.213309  -7.052493 -16.387631   2.771874 -15.374004 -31.775258  -0.004091 -24.317467  -0.002523  10.209750  -5.884300   2.524822 -22.094509  -1.569525  -9.419360  35.938997  -0.005292  -0.028547 -10.694826  -9.147939   1.391185  -2.855861   0.000285  -0.000411   5.173304   2.909805  -3.163460  15.346021   0.000213  -0.002946 -17.150207   0.793684   2.885960  -3.708504  -0.000886   0.000346
 -2.267740   0.899087   5.389656  -2.063827   4.643792   1.865063   4.014515  -0.576906  -6.638232   9.173515  -3.017807  -1.898247   2.356112  -0.034232  -0.513639   2.556274   5.818835  18.084518   3.676807  10.234218  39.130320   0.000342  18.892043  -0.000861  12.506479   2.313713  -0.565837   1.168896  -7.075091 -16.358577   2.549163 -15.514495 -31.712477  -0.003967 -24.577023  -0.002451  10.215105  -5.901958   2.571170 -22.582879  -1.346540  -9.435993  34.149630  -0.005057  -0.028036 -10.564417  -9.133419   1.452127  -2.873746   0.000287  -0.000390   5.758849   2.922570  -3.096792  15.160355   0.000245  -0.002803 -17.525256   0.592629   2.651622  -3.426954  -0.000433   0.000417
 -2.267845   0.898253   5.397359  -2.032055   4.854997   1.897286   4.009017  -0.634599  -6.616328   9.140595  -3.093787  -1.860965   2.326210   0.010950  -0.575768   2.602458   5.733779  18.111633   3.744771  10.052896  39.090519   0.000243  18.797827  -0.000738  12.460056   2.281729  -0.579365   1.129101  -7.097117 -16.337115   2.341413 -15.647288 -31.660592  -0.003772 -24.819959  -0.002351  10.219860  -5.918614   2.612014 -23.055659  -1.134626  -9.450805  32.474539  -0.004544  -0.027271 -10.443205  -9.120017   1.508666  -2.892126   0.000289  -0.000374   6.327004   2.928631  -3.027340  15.002210   0.000266  -0.002616 -17.798332   0.394341   2.444883  -3.389819  -0.000321   0.000348
 -2.267991   0.897335   5.405158  -1.977111   5.012690   1.957571   3.955627  -0.652181  -6.629164   9.126675  -3.127359  -1.833494   2.294604   0.071482  -0.669360   2.666788   5.661793  18.153943   3.852358   9.887217  39.046412   0.000111  18.671207  -0.000562  12.449040   2.280377  -0.578807   1.105644  -7.115522 -16.326935   2.131397 -15.801567 -31.594672  -0.003679 -25.087284  -0.002341  10.217031  -5.879140   2.596145 -23.551509  -0.943949  -9.477388  30.791493  -0.003443  -0.025618 -10.208395  -9.044739   1.661454  -2.947764   0.000468  -0.000473   6.913256   2.943998  -2.983878  14.777113   0.000352  -0.002555 -18.016258   0.188580   2.184239  -3.449147  -0.000322   0.000279
 -2.268183   0.896320   5.413021  -1.921273   5.165131   2.028866   3.902763  -0.667702  -6.648736   9.110938  -3.157547  -1.814527   2.263510   0.129725  -0.761443   2.734212   5.592560  18.200117   3.957871   9.728576  39.011353  -0.000005  18.549187  -0.000413  12.441111   2.263455  -0.552025   1.080254  -7.135026 -16.318050   1.932556 -15.949940 -31.534107  -0.003542 -25.340080  -0.002299  10.214649  -5.854352   2.580936 -24.050832  -0.765699  -9.501195  29.191094  -0.002222  -0.023888  -9.989352  -8.972853   1.804218  -2.991668   0.000560  -0.000509   7.495435   2.952668  -2.947845  14.565153   0.000424  -0.002459 -18.224692  -0.008399   1.934588  -3.585119  -0.000392   0.000229
 -2.268418   0.895217   5.420957  -1.867656   5.317789   2.107281   3.851729  -0.685112  -6.670952   9.096252  -3.189165  -1.799723   2.234074   0.184324  -0.848683   2.800807   5.525811  18.247439   4.058472   9.578456  38.982300  -0.000100  18.433951  -0.000292  12.433666   2.239928  -0.514218   1.055362  -7.155084 -16.311639   1.746077 -16.090269 -31.479078  -0.003365 -25.576825  -0.002220  10.212618  -5.836846   2.567073 -24.545209  -0.596633  -9.518707  27.687386  -0.001012  -0.022206  -9.785698  -8.904956   1.937023  -3.033612   0.000624  -0.000528   8.071640   2.952289  -2.913911  14.376298   0.000476  -0.002326 -18.426810  -0.199142   1.698647  -3.792119  -0.000487   0.000197
 -2.268694   0.894033   5.428973  -1.814907   5.470687   2.191550   3.801108  -0.704069  -6.694157   9.082449  -3.221983  -1.787687   2.206418   0.235298  -0.930628   2.865557   5.461522  18.294427   4.153784   9.436765  38.957549  -0.000174  18.325574  -0.000196  12.426514   2.213648  -0.471869   1.032219  -7.174839 -16.308130   1.571927 -16.222178 -31.429742  -0.003163 -25.798035  -0.002113  10.210573  -5.822779   2.552095 -25.030075  -0.436319  -9.529297  26.279119   0.000133  -0.020580  -9.596189  -8.840847   2.060576  -3.073921   0.000666  -0.000535   8.640517   2.943487  -2.880829  14.211102   0.000507  -0.002164 -18.621017  -0.384245   1.476154  -4.066297  -0.000581   0.000185
 -2.269006   0.892775   5.437072  -1.760583   5.623232   2.280921   3.749608  -0.723662  -6.717382   9.068527  -3.255176  -1.777785   2.180301   0.282853  -1.007345   2.927972   5.399739  18.340139   4.243799   9.303221  38.936036  -0.000232  18.223835  -0.000119  12.419623   2.186135  -0.427787   1.011373  -7.193710 -16.307380   1.409679 -16.345701 -31.385868  -0.002948 -26.004519  -0.001990  10.208349  -5.810551   2.534809 -25.502462  -0.284673  -9.532968  24.961777   0.001184  -0.019015  -9.419775  -8.780350   2.175540  -3.112603   0.000690  -0.000531   9.200412   2.927212  -2.848179  14.068253   0.000521  -0.001985 -18.805701  -0.564016   1.266798  -4.403527  -0.000656   0.000191
 -2.269353   0.891446   5.445255  -1.702077   5.774918   2.374787   3.696316  -0.743059  -6.739985   9.053497  -3.287983  -1.769577   2.155460   0.327216  -1.079043   2.987685   5.340576  18.383950   4.328572   9.177554  38.916998  -0.000276  18.128473  -0.000057  12.412980   2.158273  -0.383517   0.992968  -7.211363 -16.308961   1.258726 -16.461082 -31.346976  -0.002730 -26.197154  -0.001859  10.205904  -5.799395   2.515015 -25.960228  -0.141576  -9.529962  23.730261   0.002122  -0.017514  -9.255514  -8.723299   2.282534  -3.149668   0.000700  -0.000520   9.749639   2.904359  -2.815739  13.945952   0.000521  -0.001798 -18.979806  -0.738730   1.070221  -4.799397  -0.000700   0.000213
 -2.269745   0.890050   5.453583  -1.669366   5.909685   2.492541   3.644725  -0.757336  -6.785847   9.056491  -3.306075  -1.766589   2.144225   0.335844  -1.155036   3.038958   5.306925  18.449863   4.448848   9.086670  38.884180  -0.000389  17.985465   0.000098  12.461006   2.140119  -0.343991   0.977195  -7.225289 -16.323748   1.140092 -16.565686 -31.306648  -0.002474 -26.368687  -0.001707  10.202363  -5.788009   2.484813 -26.463219  -0.086074  -9.534353  22.825847   0.002987  -0.014804  -9.025953  -8.710870   2.359827  -3.174491   0.000648  -0.000443  10.320985   2.862766  -2.792197  13.844573   0.000521  -0.001590 -19.092377  -0.893456   0.758445  -5.326378  -0.001286   0.000260
 -2.270177   0.888599   5.462045  -1.641352   6.044928   2.614775   3.588429  -0.769219  -6.829859   9.062459  -3.321160  -1.767423   2.133855   0.342455  -1.227670   3.090330   5.275259  18.519717   4.563512   9.000537  38.858627  -0.000483  17.849338   0.000217  12.510128   2.107421  -0.289689   0.970441  -7.233885 -16.347266   1.033674 -16.659543 -31.276408  -0.002222 -26.526652  -0.001572  10.197091  -5.769830   2.439512 -26.940846  -0.044261  -9.523926  22.022505   0.003668  -0.012491  -8.808523  -8.700316   2.432086  -3.190875   0.000576  -0.000370  10.889138   2.814650  -2.766557  13.771755   0.000494  -0.001377 -19.185994  -1.047294   0.464652  -5.928921  -0.001758   0.000325
 -2.270642   0.887081   5.470617  -1.606806   6.181731   2.740932   3.525696  -0.778053  -6.872213   9.064867  -3.334236  -1.770446   2.122849   0.348547  -1.295742   3.140896   5.243846  18.589011   4.671823   8.919046  38.838490  -0.000554  17.721719   0.000306  12.557248   2.073040  -0.228510   0.970099  -7.238658 -16.375798   0.937446 -16.744572 -31.254067  -0.001988 -26.672835  -0.001453  10.190543  -5.748052   2.382377 -27.392485  -0.007257  -9.501538  21.280772   0.004204  -0.010601  -8.605209  -8.690124   2.499594  -3.206019   0.000514  -0.000310  11.444713   2.760407  -2.740145  13.720688   0.000452  -0.001175 -19.265768  -1.200743   0.191479  -6.589108  -0.002086   0.000398
 -2.271137   0.885490   5.479283  -1.561053   6.319835   2.871031   3.457457  -0.783759  -6.912817   9.062022  -3.345320  -1.775140   2.111078   0.354250  -1.359352   3.189339   5.213385  18.655492   4.773437   8.842472  38.821627  -0.000603  17.602504   0.000374  12.602344   2.040397  -0.165407   0.973753  -7.240849 -16.406633   0.849663 -16.822181 -31.237137  -0.001779 -26.808473  -0.001345  10.255346  -5.722811   2.318796 -27.820338   0.026483  -9.470219  20.590422   0.004613  -0.009056  -8.415448  -8.680211   2.562633  -3.220560   0.000462  -0.000261  11.984873   2.700795  -2.713960  13.686271   0.000401  -0.000988 -19.335038  -1.353792  -0.062647  -7.294634  -0.002278   0.000476
